<svg id="visual" viewBox="0 0 900 600" width="900" height="600" xmlns="http://www.w3.org/2000/svg" xmlns:xlink="http://www.w3.org/1999/xlink" version="1.1"><path d="M0 457L21.5 445.2C43 433.3 86 409.7 128.8 420.8C171.7 432 214.3 478 257.2 480.7C300 483.3 343 442.7 385.8 432C428.7 421.3 471.3 440.7 514.2 459.2C557 477.7 600 495.3 642.8 491.2C685.7 487 728.3 461 771.2 455.5C814 450 857 465 878.5 472.5L900 480L900 601L878.5 601C857 601 814 601 771.2 601C728.3 601 685.7 601 642.8 601C600 601 557 601 514.2 601C471.3 601 428.7 601 385.8 601C343 601 300 601 257.2 601C214.3 601 171.7 601 128.8 601C86 601 43 601 21.5 601L0 601Z" fill="#023e8a" stroke-linecap="round" stroke-linejoin="miter"></path></svg>