<svg id="visual" viewBox="0 0 900 600" width="900" height="600" xmlns="http://www.w3.org/2000/svg" xmlns:xlink="http://www.w3.org/1999/xlink" version="1.1"><path d="M0 450L21.5 460.8C43 471.7 86 493.3 128.8 492.3C171.7 491.3 214.3 467.7 257.2 468.7C300 469.7 343 495.3 385.8 489C428.7 482.7 471.3 444.3 514.2 424.7C557 405 600 404 642.8 410.8C685.7 417.7 728.3 432.3 771.2 434.7C814 437 857 427 878.5 422L900 417L900 601L878.5 601C857 601 814 601 771.2 601C728.3 601 685.7 601 642.8 601C600 601 557 601 514.2 601C471.3 601 428.7 601 385.8 601C343 601 300 601 257.2 601C214.3 601 171.7 601 128.8 601C86 601 43 601 21.5 601L0 601Z" fill="#03045e" stroke-linecap="round" stroke-linejoin="miter"></path></svg>