<svg id="visual" viewBox="0 0 900 600" width="900" height="600" xmlns="http://www.w3.org/2000/svg" xmlns:xlink="http://www.w3.org/1999/xlink" version="1.1"><path d="M0 425L21.5 421.2C43 417.3 86 409.7 128.8 420.2C171.7 430.7 214.3 459.3 257.2 479.7C300 500 343 512 385.8 517.8C428.7 523.7 471.3 523.3 514.2 510.3C557 497.3 600 471.7 642.8 455C685.7 438.3 728.3 430.7 771.2 430.7C814 430.7 857 438.3 878.5 442.2L900 446L900 601L878.5 601C857 601 814 601 771.2 601C728.3 601 685.7 601 642.8 601C600 601 557 601 514.2 601C471.3 601 428.7 601 385.8 601C343 601 300 601 257.2 601C214.3 601 171.7 601 128.8 601C86 601 43 601 21.5 601L0 601Z" fill="#0077b6" stroke-linecap="round" stroke-linejoin="miter"></path></svg>