<svg id="visual" viewBox="0 0 900 600" width="900" height="600" xmlns="http://www.w3.org/2000/svg" xmlns:xlink="http://www.w3.org/1999/xlink" version="1.1"><path d="M0 501L21.5 489.8C43 478.7 86 456.3 128.8 447C171.7 437.7 214.3 441.3 257.2 451.3C300 461.3 343 477.7 385.8 478.5C428.7 479.3 471.3 464.7 514.2 454.7C557 444.7 600 439.3 642.8 441.2C685.7 443 728.3 452 771.2 460.2C814 468.3 857 475.7 878.5 479.3L900 483L900 601L878.5 601C857 601 814 601 771.2 601C728.3 601 685.7 601 642.8 601C600 601 557 601 514.2 601C471.3 601 428.7 601 385.8 601C343 601 300 601 257.2 601C214.3 601 171.7 601 128.8 601C86 601 43 601 21.5 601L0 601Z" fill="#0096c7" stroke-linecap="round" stroke-linejoin="miter"></path></svg>